<svg width="32" height="32" viewBox="0 0 32 32" fill="none" xmlns="http://www.w3.org/2000/svg">
<g clip-path="url(#clip0_89_26)">
<path d="M23.8027 6.9978C24.1492 6.9978 24.4355 7.07699 24.626 7.26733C24.8164 7.45774 24.8955 7.74412 24.8955 8.09058V16.1003L27.333 14.0417L27.3359 14.0388C27.4225 13.9696 27.5286 13.9216 27.6484 13.8904C27.7874 13.8441 27.9332 13.8211 28.085 13.821H31.0566C31.4031 13.8211 31.6895 13.9002 31.8799 14.0906C32.0703 14.281 32.1494 14.5674 32.1494 14.9138V21.3689C32.1494 21.555 32.1198 21.7219 32.0586 21.866C32.0093 22.0139 31.9265 22.1408 31.8096 22.241L31.8076 22.2419L29.1445 24.4548L29.1436 24.4539C29.0663 24.5267 28.9586 24.5808 28.834 24.6228C28.7054 24.671 28.5645 24.6941 28.4131 24.6941H17.9834C17.637 24.6941 17.3506 24.6159 17.1602 24.4255C16.9698 24.2352 16.8907 23.9487 16.8906 23.6023V10.324C16.8906 10.1359 16.9124 9.9686 16.96 9.82593L16.9658 9.81226C17.0289 9.67051 17.1169 9.54927 17.2305 9.4519H17.2314L19.874 7.21851L19.877 7.21558C19.9636 7.14628 20.0705 7.09932 20.1904 7.06812V7.06714C20.3294 7.02088 20.4752 6.9978 20.627 6.9978H23.8027ZM20.627 7.50269C20.3879 7.50269 20.2428 7.55984 20.1592 7.64331C20.092 7.71048 20.0391 7.84545 20.0391 8.09058V21.3689C20.0391 21.6046 20.0885 21.7501 20.1592 21.8347C20.2436 21.9061 20.3896 21.9558 20.627 21.9558H31.0566C31.3017 21.9558 31.4367 21.9029 31.5039 21.8357C31.5872 21.7521 31.6445 21.6075 31.6445 21.3689V14.9138C31.6445 14.673 31.586 14.5413 31.5098 14.4734L31.5029 14.4675L31.4971 14.4607C31.4292 14.3844 31.2975 14.326 31.0566 14.3259H28.085C27.846 14.326 27.7007 14.383 27.6172 14.4666C27.5501 14.5337 27.4981 14.6688 27.498 14.9138V18.3835H24.3906V8.09058C24.3906 7.84959 24.3332 7.71702 24.2568 7.64917L24.25 7.64331L24.2441 7.63745C24.1763 7.56111 24.0438 7.50269 23.8027 7.50269H20.627ZM22.4775 9.04761V19.907H29.3086V15.8708H29.8135V20.4119H21.9727V9.04761H22.4775Z" fill="#F3F3F3" stroke="#F3F3F3" stroke-width="0.3"/>
<path d="M14.0566 6.9978C14.4031 6.99784 14.6895 7.07694 14.8799 7.26733C15.0703 7.45774 15.1494 7.74415 15.1494 8.09058V18.2332C15.1494 18.8891 15.0502 19.4991 14.8535 20.0623L14.8545 20.0632C14.6674 20.6245 14.3292 21.1056 13.8447 21.5046L11.2021 23.7371L11.2012 23.738C10.7157 24.1378 10.0663 24.4465 9.26074 24.6687C8.4506 24.8922 7.41121 25.0017 6.14746 25.0017C4.89445 25.0017 3.85103 24.8577 3.02344 24.5632V24.5623C2.21608 24.2837 1.56609 23.9057 1.08203 23.4216L1.08105 23.4197C0.613943 22.9384 0.286257 22.3846 0.101562 21.7595V21.7566C-0.0659671 21.1423 -0.150383 20.5072 -0.150391 19.8523V17.1472C-0.15037 16.9592 -0.128608 16.7918 -0.0810547 16.6492L-0.078125 16.6414C-0.0176188 16.4901 0.0630938 16.3633 0.169922 16.2742L2.83398 14.0408L2.83594 14.0388C2.92195 13.97 3.0276 13.9216 3.14648 13.8904C3.27594 13.8423 3.42387 13.821 3.58594 13.821H6.55664C6.71673 13.821 6.8629 13.8426 6.99121 13.8894C7.02997 13.8985 7.06741 13.9096 7.10352 13.9226V10.324C7.10353 10.1359 7.12529 9.9686 7.17285 9.82593L7.1748 9.81909L7.17773 9.81226C7.24077 9.67046 7.32879 9.54931 7.44238 9.4519H7.44336L10.0869 7.21851L10.0898 7.21558C10.1763 7.1464 10.2827 7.09932 10.4023 7.06812C10.5414 7.02177 10.688 6.9978 10.8398 6.9978H14.0566ZM10.8398 7.50269C10.601 7.50269 10.4557 7.55992 10.3721 7.64331C10.3049 7.71048 10.252 7.84545 10.252 8.09058V17.4138C10.252 17.7192 10.1585 17.9861 9.96973 18.2068C9.86471 18.3309 9.69929 18.4083 9.50195 18.4558C9.30158 18.504 9.04885 18.5271 8.74902 18.5271C8.42915 18.5271 8.15934 18.5044 7.94336 18.4568C7.73025 18.4098 7.55274 18.3347 7.43457 18.2166L7.42578 18.2087L7.42676 18.2078C7.23756 17.987 7.14453 17.7195 7.14453 17.4138V14.9138C7.1445 14.6732 7.08687 14.5413 7.01074 14.4734L7.00391 14.4675L6.99805 14.4607C6.93019 14.3844 6.79775 14.3259 6.55664 14.3259H3.58594C3.34692 14.3259 3.20174 14.3831 3.11816 14.4666C3.051 14.5337 2.99808 14.6687 2.99805 14.9138V18.2332C2.99805 18.8485 3.07865 19.4075 3.2373 19.9099C3.40556 20.3859 3.69614 20.7988 4.1123 21.1501C4.54168 21.4876 5.12719 21.7597 5.87695 21.9607C6.63867 22.1611 7.60913 22.2634 8.79004 22.2634C9.98492 22.2634 10.962 22.1611 11.7236 21.9607C12.4896 21.7591 13.0753 21.4863 13.4902 21.1492C13.9213 20.7963 14.2181 20.382 14.3857 19.905C14.557 19.4039 14.6436 18.847 14.6436 18.2332V8.09058C14.6435 7.84957 14.5861 7.71701 14.5098 7.64917L14.5029 7.64331L14.4971 7.63745C14.4292 7.56117 14.2975 7.50273 14.0566 7.50269H10.8398ZM12.6904 9.04761V17.7419C12.6904 18.5825 12.4171 19.2829 11.8682 19.8328L11.8691 19.8337C11.3179 20.3999 10.2843 20.658 8.83105 20.658C8.05855 20.6579 7.4092 20.5892 6.88672 20.448H6.88574C6.38126 20.3079 5.97079 20.1151 5.66309 19.866L5.66016 19.864C5.35446 19.602 5.13407 19.2866 5.00195 18.9197L5 18.9148C4.88539 18.5566 4.82912 18.165 4.8291 17.7419V15.9734H5.33398V17.7419C5.33404 18.4847 5.57378 19.0638 6.04395 19.4958H6.04297C6.51784 19.9199 7.43016 20.153 8.83105 20.1531C10.1781 20.1531 11.0474 19.9188 11.4941 19.4968C11.9523 19.0506 12.1855 18.4706 12.1855 17.7419V9.04761H12.6904Z" fill="#F3F3F3" stroke="#F3F3F3" stroke-width="0.3"/>
</g>
<defs>
<clipPath id="clip0_89_26">
<rect width="32" height="32" fill="white"/>
</clipPath>
</defs>
</svg>
