<svg width="202" height="113" viewBox="0 0 202 113" fill="none" xmlns="http://www.w3.org/2000/svg">
<path d="M149.699 0.5L150.089 0.505859C152.013 0.562673 153.527 1.0491 154.532 2.05469C155.605 3.12723 156.087 4.77756 156.087 6.8877V57.8662L172.032 44.3945L172.043 44.3857C172.537 43.9909 173.157 43.7087 173.885 43.5254C174.699 43.2568 175.556 43.124 176.451 43.124H195.011C197.121 43.124 198.772 43.6061 199.845 44.6787C200.917 45.7513 201.399 47.4017 201.399 49.5117V89.832C201.399 90.9773 201.223 91.9792 200.854 92.8223C200.57 93.6662 200.096 94.3783 199.433 94.9473L199.427 94.9531L199.426 94.9521L182.786 108.776C182.365 109.182 181.738 109.504 180.961 109.763L180.96 109.762C180.217 110.037 179.395 110.172 178.499 110.172H113.347C111.237 110.172 109.586 109.69 108.514 108.617C107.441 107.545 106.959 105.894 106.959 103.784V20.8398C106.959 19.6955 107.09 18.7 107.368 17.8662L107.376 17.8428L107.386 17.8213C107.755 16.9901 108.268 16.2882 108.926 15.7246L108.929 15.7217L125.44 1.77051L125.45 1.76172C125.942 1.3684 126.56 1.0877 127.284 0.904297C128.101 0.633829 128.961 0.5 129.859 0.5H149.699ZM129.859 2.78027C128.306 2.78027 127.266 3.14869 126.629 3.78516C126.087 4.32746 125.751 5.31425 125.751 6.8877V89.832C125.751 91.3774 126.075 92.419 126.627 93.0576C127.265 93.6131 128.308 93.9404 129.859 93.9404H195.011C196.584 93.9404 197.571 93.6048 198.113 93.0625C198.75 92.4258 199.119 91.3854 199.119 89.832V49.5117C199.119 47.952 198.747 46.9742 198.135 46.4297L198.113 46.4102L198.094 46.3877C197.549 45.7751 196.571 45.4043 195.011 45.4043H176.451C174.898 45.4043 173.857 45.7726 173.221 46.4092C172.678 46.9515 172.343 47.9382 172.343 49.5117V70.748H153.807V6.8877C153.807 5.32818 153.436 4.35026 152.823 3.80566L152.801 3.78613L152.781 3.76465C152.237 3.15201 151.259 2.78031 149.699 2.78027H129.859ZM140.983 13.2998V81.1396H184.527V55.9238H186.807V83.4199H138.703V13.2998H140.983Z" fill="#1F1F1F" stroke="#1F1F1F"/>
<path d="M88.8076 0.5C90.9179 0.5 92.569 0.982103 93.6416 2.05469C94.714 3.12723 95.1962 4.77765 95.1963 6.8877V70.248C95.1963 74.3087 94.5911 78.0771 93.376 81.5488C92.235 84.9676 90.1738 87.8986 87.21 90.3408L87.2109 90.3418L70.6982 104.294L70.6943 104.298C67.7229 106.745 63.727 108.649 58.7334 110.026C53.7244 111.408 47.2748 112.092 39.4004 112.092C31.6038 112.092 25.1433 111.193 20.0371 109.376V109.377C15.0352 107.652 11.038 105.313 8.07031 102.346L8.06543 102.34C5.19503 99.3824 3.18966 95.9842 2.05664 92.1494L2.05371 92.1396C1.01769 88.3409 0.50003 84.414 0.5 80.3604V63.4639C0.500011 62.3195 0.63131 61.3241 0.90918 60.4902L0.914062 60.4756L0.919922 60.4619C1.28096 59.5595 1.74849 58.8398 2.34375 58.3438L18.9824 44.3926L18.9912 44.3857C19.4838 43.9917 20.1035 43.7097 20.8291 43.5264C21.5731 43.2535 22.4341 43.124 23.4004 43.124H41.96C42.9249 43.124 43.784 43.2543 44.5273 43.5264C44.9932 43.632 45.4217 43.7845 45.8115 43.9834V20.8398C45.8115 19.6954 45.9438 18.7001 46.2217 17.8662L46.2295 17.8428L46.2393 17.8213C46.6086 16.9902 47.1209 16.2882 47.7783 15.7246L47.7812 15.7217L64.293 1.77051L64.3037 1.76172C64.7955 1.36831 65.4137 1.0877 66.1377 0.904297C66.9546 0.633936 67.8136 0.500008 68.7119 0.5H88.8076ZM68.7119 2.78027C67.1587 2.78029 66.1181 3.14856 65.4814 3.78516C64.9391 4.32746 64.6045 5.31424 64.6045 6.8877V65.1279C64.6045 66.9431 64.0558 68.5124 62.9473 69.8057L62.9463 69.8047C62.3769 70.4759 61.447 70.9264 60.2529 71.2139C59.0478 71.504 57.5112 71.6435 55.6562 71.6436C53.6742 71.6436 52.024 71.5038 50.7168 71.2158C49.4189 70.9298 48.4027 70.4867 47.75 69.834L47.7373 69.8203L47.7246 69.8057C46.6161 68.5124 46.0684 66.9431 46.0684 65.1279V49.5117C46.0683 47.9521 45.6966 46.9743 45.084 46.4297L45.0615 46.4102L45.042 46.3877C44.4973 45.7753 43.5195 45.4043 41.96 45.4043H23.4004C21.8473 45.4043 20.8067 45.7727 20.1699 46.4092C19.6276 46.9515 19.292 47.9383 19.292 49.5117V70.248C19.292 74.1237 19.7966 77.6509 20.7998 80.834L21.0107 81.4043C22.1116 84.2273 23.9036 86.6913 26.3975 88.7988L26.9238 89.2002C29.6133 91.177 33.1675 92.7668 37.6064 93.9561C42.4143 95.2213 48.5127 95.8604 55.9121 95.8604C63.3973 95.8603 69.5373 95.2212 74.3447 93.9561C79.1673 92.687 82.8917 90.9626 85.5488 88.8037C88.2994 86.5528 90.2042 83.8967 91.2803 80.834C92.3685 77.6515 92.916 74.1245 92.916 70.248V6.8877C92.916 5.32798 92.5443 4.35022 91.9316 3.80566L91.9102 3.78613L91.8906 3.76465C91.346 3.15198 90.3675 2.78027 88.8076 2.78027H68.7119ZM79.8359 13.2998V67.1758C79.8359 72.3263 78.1719 76.5941 74.8291 79.9395L74.8301 79.9404C71.52 83.34 65.2308 84.9561 56.168 84.9561C51.3636 84.9561 47.3483 84.527 44.1338 83.6582H44.1299C41.0156 82.7931 38.5148 81.6153 36.6533 80.1084L36.6426 80.0996C34.7877 78.5097 33.4558 76.6038 32.6572 74.3857L32.6514 74.3682C31.9509 72.1792 31.6035 69.7801 31.6035 67.1758V56.5645H33.8838V67.1758C33.8838 71.9179 35.4166 75.6582 38.4531 78.4512C41.5475 81.2198 47.395 82.6758 56.168 82.6758C64.5978 82.6758 70.1824 81.2205 73.1045 78.4609C76.0648 75.5803 77.5557 71.834 77.5557 67.1758V13.2998H79.8359Z" fill="#1F1F1F" stroke="#1F1F1F"/>
</svg>
